G04*
G04 #@! TF.GenerationSoftware,Altium Limited,Altium Designer,18.0.11 (651)*
G04*
G04 Layer_Physical_Order=1*
G04 Layer_Color=255*
%FSLAX44Y44*%
%MOMM*%
G71*
G01*
G75*
%ADD10R,1.4700X1.1600*%
%ADD11R,1.1600X1.4700*%
%ADD12R,4.0000X1.5000*%
%ADD13R,4.0000X2.0000*%
%ADD14R,0.9300X0.9800*%
%ADD15O,1.8000X0.5500*%
%ADD16R,1.8000X0.5500*%
%ADD17R,0.9800X0.9300*%
%ADD18C,0.8890*%
%ADD19R,1.1430X0.1270*%
%ADD20C,2.2860*%
%ADD21C,1.7000*%
%ADD22R,1.7000X1.7000*%
G36*
X269815Y216792D02*
Y191240D01*
X266970D01*
Y189925D01*
X247405D01*
X246879Y191195D01*
X250353Y194670D01*
X254000Y194189D01*
X257647Y194670D01*
X261045Y196077D01*
X263964Y198316D01*
X266203Y201235D01*
X267610Y204633D01*
X268090Y208280D01*
X267610Y211927D01*
X266203Y215325D01*
X263964Y218244D01*
X261045Y220483D01*
X257647Y221890D01*
X254000Y222370D01*
X250353Y221890D01*
X246955Y220483D01*
X244037Y218244D01*
X241797Y215325D01*
X240390Y211927D01*
X239909Y208280D01*
X240390Y204633D01*
X238382Y202625D01*
X233500D01*
Y202770D01*
X218620D01*
Y202625D01*
X197135D01*
X196749Y203895D01*
X197604Y204466D01*
X198773Y206216D01*
X199184Y208280D01*
X198773Y210344D01*
X197604Y212094D01*
X195854Y213263D01*
X193790Y213674D01*
X181290D01*
X179226Y213263D01*
X177476Y212094D01*
X176307Y210344D01*
X175896Y208280D01*
X176307Y206216D01*
X177476Y204466D01*
X179226Y203297D01*
X181290Y202886D01*
X183231D01*
X183819Y201944D01*
X183011Y200974D01*
X181290D01*
X179226Y200563D01*
X177476Y199394D01*
X176307Y197644D01*
X175896Y195580D01*
X176307Y193516D01*
X177476Y191766D01*
X179226Y190597D01*
X181290Y190186D01*
X182263D01*
X182782Y188916D01*
X182127Y188274D01*
X181290D01*
X179226Y187863D01*
X177476Y186694D01*
X176307Y184944D01*
X175896Y182880D01*
X176307Y180816D01*
X177476Y179066D01*
X179226Y177897D01*
X181290Y177486D01*
X183011D01*
X183819Y176516D01*
X183231Y175574D01*
X181290D01*
X179226Y175163D01*
X177476Y173994D01*
X176307Y172244D01*
X175896Y170180D01*
X176307Y168116D01*
X177476Y166366D01*
X179226Y165197D01*
X181290Y164786D01*
X193790D01*
X195854Y165197D01*
X197604Y166366D01*
X198773Y168116D01*
X199184Y170180D01*
X198773Y172244D01*
X197604Y173994D01*
X196749Y174565D01*
X197135Y175835D01*
X266619D01*
X266970Y174565D01*
Y173440D01*
X266970Y173290D01*
Y156760D01*
X286750D01*
Y158055D01*
X296230D01*
Y155060D01*
X337745D01*
Y36365D01*
X336252Y32760D01*
X333592Y28152D01*
X330352Y23930D01*
X326590Y20168D01*
X322369Y16928D01*
X319573Y15315D01*
X30099D01*
X27138Y17025D01*
X22856Y20310D01*
X19040Y24126D01*
X15755Y28408D01*
X13056Y33081D01*
X12775Y33761D01*
Y172840D01*
X53020D01*
Y175835D01*
X71390D01*
Y174540D01*
X91170D01*
Y175835D01*
X125445D01*
X125830Y174565D01*
X124976Y173994D01*
X123807Y172244D01*
X123396Y170180D01*
X123807Y168116D01*
X124976Y166366D01*
X126726Y165197D01*
X127495Y165044D01*
Y159840D01*
X127350D01*
Y144960D01*
X127495D01*
Y142060D01*
X127430D01*
Y127180D01*
X127575D01*
Y99755D01*
X107410D01*
Y102600D01*
X90880D01*
X90730Y102600D01*
X89585D01*
X88315Y102902D01*
Y106950D01*
X89610D01*
Y126730D01*
X72930D01*
Y106950D01*
X74225D01*
Y102600D01*
X72930D01*
Y82820D01*
X89460D01*
X89610Y82820D01*
X90730D01*
X90880Y82820D01*
X107410D01*
Y85665D01*
X123140D01*
Y85090D01*
X123337Y84099D01*
X123580Y83736D01*
Y76590D01*
X145660D01*
Y98670D01*
X141665D01*
Y127180D01*
X141810D01*
Y142060D01*
X141585D01*
Y144960D01*
X141730D01*
Y159840D01*
X141585D01*
Y164845D01*
X143354Y165197D01*
X145104Y166366D01*
X146273Y168116D01*
X146684Y170180D01*
X146273Y172244D01*
X145104Y173994D01*
X143354Y175163D01*
X141290Y175574D01*
X140317D01*
X139798Y176844D01*
X140453Y177486D01*
X141290D01*
X143354Y177897D01*
X145104Y179066D01*
X146273Y180816D01*
X146684Y182880D01*
X146273Y184944D01*
X145104Y186694D01*
X143354Y187863D01*
X141290Y188274D01*
X140317D01*
X139798Y189544D01*
X140453Y190186D01*
X141290D01*
X143354Y190597D01*
X145104Y191766D01*
X146273Y193516D01*
X146684Y195580D01*
X146273Y197644D01*
X145104Y199394D01*
X143354Y200563D01*
X141290Y200974D01*
X139485D01*
X138563Y201681D01*
X138469Y201720D01*
X138722Y202990D01*
X146580D01*
Y213570D01*
X123500D01*
X123500Y202990D01*
X122381Y202625D01*
X112138D01*
X109915Y204848D01*
Y220602D01*
X137514Y248200D01*
X145780D01*
Y249495D01*
X168170D01*
Y246650D01*
X184700D01*
X184850Y246650D01*
X185970D01*
X186120Y246650D01*
X202650D01*
Y249495D01*
X237112D01*
X269815Y216792D01*
D02*
G37*
G36*
X208280Y195420D02*
X208120D01*
X204470Y191770D01*
X192303Y195420D01*
X191930D01*
X191770Y195580D01*
X203200Y199390D01*
X204310D01*
X208280Y195420D01*
D02*
G37*
G36*
X316218Y327082D02*
X321141Y324240D01*
X325650Y320780D01*
X329670Y316760D01*
X333130Y312251D01*
X335972Y307328D01*
X337745Y303047D01*
Y175140D01*
X296230D01*
Y172145D01*
X287052D01*
X286750Y173415D01*
Y174560D01*
X286750Y174710D01*
Y191240D01*
X283905D01*
Y219710D01*
X283665Y221533D01*
X282961Y223233D01*
X281842Y224692D01*
X245012Y261522D01*
X243553Y262641D01*
X241853Y263345D01*
X240030Y263585D01*
X202650D01*
Y266430D01*
X186120D01*
X185970Y266430D01*
X184850D01*
X184700Y266430D01*
X168170D01*
Y263585D01*
X145780D01*
Y264880D01*
X126000D01*
Y256614D01*
X97888Y228502D01*
X96769Y227043D01*
X96065Y225343D01*
X95825Y223520D01*
Y201930D01*
X96065Y200107D01*
X96769Y198407D01*
X97888Y196948D01*
X103641Y191195D01*
X103115Y189925D01*
X91170D01*
Y191220D01*
X71390D01*
Y189925D01*
X53020D01*
Y192920D01*
X12775D01*
Y306113D01*
X13278Y307328D01*
X16120Y312251D01*
X19580Y316760D01*
X23600Y320780D01*
X28109Y324240D01*
X33031Y327082D01*
X34247Y327585D01*
X315003D01*
X316218Y327082D01*
D02*
G37*
%LPC*%
G36*
X185420Y142360D02*
X181773Y141880D01*
X178375Y140473D01*
X175457Y138233D01*
X173217Y135315D01*
X171810Y131917D01*
X171329Y128270D01*
X171810Y124623D01*
X173217Y121225D01*
X175457Y118307D01*
X178375Y116067D01*
Y106680D01*
Y96140D01*
X177546Y95504D01*
X175777Y93198D01*
X174664Y90512D01*
X174285Y87630D01*
X174664Y84748D01*
X175777Y82062D01*
X177546Y79756D01*
X179852Y77987D01*
X182538Y76874D01*
X185420Y76495D01*
X188302Y76874D01*
X190988Y77987D01*
X193294Y79756D01*
X193930Y80585D01*
X216450D01*
Y77740D01*
X232980D01*
X233130Y77740D01*
X234250D01*
X234400Y77740D01*
X250930D01*
Y97520D01*
X249635D01*
Y101870D01*
X250920D01*
Y121650D01*
X234240D01*
Y101870D01*
X235545D01*
Y97822D01*
X234275Y97520D01*
X233130D01*
X232980Y97520D01*
X216450D01*
Y94675D01*
X193930D01*
X193294Y95504D01*
X192465Y96140D01*
Y106680D01*
Y116067D01*
X195383Y118307D01*
X197623Y121225D01*
X199030Y124623D01*
X199510Y128270D01*
X199030Y131917D01*
X197623Y135315D01*
X195383Y138233D01*
X192465Y140473D01*
X189067Y141880D01*
X185420Y142360D01*
D02*
G37*
%LPD*%
D10*
X135890Y256540D02*
D03*
Y274340D02*
D03*
X276860Y165100D02*
D03*
Y182900D02*
D03*
X81280Y182880D02*
D03*
Y165080D02*
D03*
D11*
X194310Y256540D02*
D03*
X176510D02*
D03*
X81270Y116840D02*
D03*
X99070D02*
D03*
X224780Y111760D02*
D03*
X242580D02*
D03*
X242590Y87630D02*
D03*
X224790D02*
D03*
X81270Y92710D02*
D03*
X99070D02*
D03*
D12*
X318770Y165100D02*
D03*
X30480Y182880D02*
D03*
D13*
X318770Y192100D02*
D03*
Y138100D02*
D03*
X30480Y155880D02*
D03*
Y209880D02*
D03*
D14*
X134620Y134620D02*
D03*
X150020D02*
D03*
X134540Y152400D02*
D03*
X149940D02*
D03*
D15*
X187540Y170180D02*
D03*
Y182880D02*
D03*
Y195580D02*
D03*
Y208280D02*
D03*
X135040Y170180D02*
D03*
Y182880D02*
D03*
Y195580D02*
D03*
D16*
Y208280D02*
D03*
D17*
X208280Y195420D02*
D03*
Y210820D02*
D03*
X226060Y195580D02*
D03*
Y210980D02*
D03*
D18*
X185420Y87630D02*
Y106680D01*
Y128270D01*
X187540Y195580D02*
X226060D01*
X241300D02*
X254000Y208280D01*
X226060Y195580D02*
X241300D01*
X276860Y182900D02*
Y219710D01*
X240030Y256540D02*
X276860Y219710D01*
X194310Y256540D02*
X240030D01*
X135890D02*
X176510D01*
X102870Y223520D02*
X135890Y256540D01*
X102870Y201930D02*
Y223520D01*
Y201930D02*
X109220Y195580D01*
X135040D01*
X242580Y111760D02*
X242590Y111750D01*
Y87630D02*
Y111750D01*
X185420Y87630D02*
X224790D01*
X129540Y92710D02*
X134620Y87630D01*
X99070Y92710D02*
X129540D01*
X81270D02*
Y116840D01*
X134540Y169680D02*
X135040Y170180D01*
X134540Y152400D02*
Y169680D01*
Y134700D02*
X134620Y134620D01*
X134540Y134700D02*
Y152400D01*
X134620Y87630D02*
Y134620D01*
X276840Y182880D02*
X276860Y182900D01*
X187540Y182880D02*
X276840D01*
X276860Y165100D02*
X318770D01*
X30480Y182880D02*
X81280D01*
X135040D01*
D19*
X131445Y85725D02*
D03*
D20*
X185420Y128270D02*
D03*
X254000Y208280D02*
D03*
D21*
X160020Y87630D02*
D03*
X185420D02*
D03*
D22*
X134620D02*
D03*
M02*
